<?xml version="1.0" encoding="utf-8"?>
<!-- Generator: Adobe Illustrator 27.3.0, SVG Export Plug-In . SVG Version: 6.00 Build 0)  -->
<svg version="1.1" xmlns="http://www.w3.org/2000/svg" xmlns:xlink="http://www.w3.org/1999/xlink" x="0px" y="0px"
	 viewBox="0 0 500 122.8" style="enable-background:new 0 0 500 122.8;" xml:space="preserve">
<style type="text/css">
	.st0{fill:#737373;}
</style>
<g id="Type">
</g>
<g id="Star">
	<path class="st0" d="M131.4,43.5h50.6V53h-19.9v53.1h-11V53h-19.8V43.5z M179.9,60.8h9.4v8.8h0.2c0.3-1.2,0.9-2.4,1.7-3.6
		c0.8-1.2,1.9-2.2,3.1-3.2c1.2-1,2.5-1.7,4-2.3c1.5-0.6,2.9-0.9,4.5-0.9c1.2,0,2,0,2.4,0.1c0.4,0.1,0.9,0.1,1.4,0.2v9.6
		c-0.7-0.1-1.4-0.2-2.1-0.3c-0.7-0.1-1.4-0.1-2.1-0.1c-1.7,0-3.3,0.3-4.8,1c-1.5,0.7-2.8,1.7-3.9,3c-1.1,1.3-2,2.9-2.6,4.9
		c-0.6,1.9-1,4.1-1,6.7v21.6h-10V60.8z M252.2,106.1h-9.8v-6.3h-0.2c-1.2,2.3-3.1,4.1-5.5,5.5c-2.4,1.4-4.9,2.1-7.4,2.1
		c-6,0-10.3-1.5-12.9-4.4c-2.7-2.9-4-7.4-4-13.4V60.8h10v27.8c0,4,0.8,6.8,2.3,8.4c1.5,1.6,3.6,2.5,6.4,2.5c2.1,0,3.9-0.3,5.3-1
		c1.4-0.6,2.5-1.5,3.4-2.6c0.9-1.1,1.5-2.4,1.9-3.9c0.4-1.5,0.6-3.2,0.6-4.9V60.8h10V106.1z M269.2,91.5c0.3,2.9,1.4,5,3.3,6.1
		c1.9,1.2,4.2,1.8,6.9,1.8c0.9,0,2-0.1,3.2-0.2c1.2-0.1,2.3-0.4,3.4-0.8c1.1-0.4,1.9-1,2.6-1.8c0.7-0.8,1-1.8,0.9-3.1
		c-0.1-1.3-0.5-2.3-1.4-3.2c-0.9-0.8-2-1.5-3.4-2c-1.4-0.5-2.9-0.9-4.7-1.3c-1.8-0.4-3.5-0.7-5.3-1.1c-1.9-0.4-3.7-0.9-5.4-1.5
		c-1.7-0.6-3.3-1.4-4.6-2.4c-1.4-1-2.5-2.3-3.3-3.8c-0.8-1.5-1.2-3.5-1.2-5.7c0-2.5,0.6-4.5,1.8-6.2c1.2-1.7,2.7-3,4.6-4
		c1.8-1,3.9-1.7,6.1-2.1c2.2-0.4,4.4-0.6,6.4-0.6c2.3,0,4.6,0.2,6.7,0.7c2.1,0.5,4.1,1.3,5.8,2.4c1.7,1.1,3.2,2.6,4.3,4.3
		c1.1,1.8,1.9,3.9,2.1,6.4h-10.4c-0.5-2.4-1.6-4-3.3-4.8c-1.7-0.8-3.7-1.2-5.9-1.2c-0.7,0-1.5,0.1-2.5,0.2c-1,0.1-1.9,0.3-2.7,0.7
		c-0.8,0.3-1.6,0.8-2.1,1.4c-0.6,0.6-0.9,1.4-0.9,2.4c0,1.2,0.4,2.2,1.3,3c0.8,0.8,2,1.4,3.3,1.9c1.4,0.5,2.9,0.9,4.7,1.3
		c1.8,0.4,3.6,0.7,5.4,1.1c1.8,0.4,3.6,0.9,5.3,1.5c1.8,0.6,3.3,1.4,4.7,2.4c1.4,1,2.5,2.2,3.3,3.8c0.8,1.5,1.3,3.4,1.3,5.6
		c0,2.7-0.6,5-1.8,6.8c-1.2,1.9-2.8,3.4-4.8,4.6c-2,1.2-4.1,2-6.5,2.5c-2.4,0.5-4.8,0.8-7.1,0.8c-2.9,0-5.5-0.3-7.9-1
		c-2.4-0.6-4.5-1.6-6.3-2.9c-1.8-1.3-3.2-2.9-4.2-4.9c-1-2-1.6-4.3-1.6-7H269.2z M302.2,60.8h7.5V47.2h10v13.6h9v7.4h-9v24.2
		c0,1.1,0,2,0.1,2.7c0.1,0.8,0.3,1.4,0.6,1.9c0.3,0.5,0.8,0.9,1.4,1.2c0.6,0.3,1.5,0.4,2.6,0.4c0.7,0,1.4,0,2.1,0
		c0.7,0,1.4-0.1,2.1-0.3v7.7c-1.1,0.1-2.2,0.2-3.2,0.4c-1.1,0.1-2.1,0.2-3.2,0.2c-2.6,0-4.7-0.2-6.4-0.7c-1.6-0.5-2.9-1.2-3.8-2.2
		c-0.9-1-1.5-2.2-1.8-3.6c-0.3-1.5-0.5-3.1-0.6-5V68.2h-7.5V60.8z M335.7,60.8h9.5v6.1h0.2c1.4-2.6,3.4-4.5,5.9-5.7
		c2.5-1.1,5.2-1.7,8.1-1.7c3.6,0,6.7,0.6,9.3,1.9c2.7,1.3,4.9,3,6.6,5.2c1.8,2.2,3.1,4.7,3.9,7.7c0.9,2.9,1.3,6,1.3,9.4
		c0,3-0.4,6-1.2,8.8c-0.8,2.9-2,5.4-3.6,7.6c-1.6,2.2-3.6,3.9-6.1,5.3c-2.5,1.3-5.3,2-8.7,2c-1.5,0-2.9-0.1-4.4-0.4
		c-1.5-0.3-2.9-0.7-4.2-1.3c-1.3-0.6-2.6-1.3-3.7-2.2c-1.1-0.9-2.1-2-2.8-3.2h-0.2v22.6h-10V60.8z M370.6,83.5c0-2-0.3-4-0.8-6
		c-0.5-1.9-1.3-3.6-2.4-5.1c-1.1-1.5-2.4-2.7-3.9-3.6c-1.6-0.9-3.4-1.4-5.4-1.4c-4.2,0-7.4,1.5-9.5,4.4c-2.1,2.9-3.2,6.8-3.2,11.7
		c0,2.3,0.3,4.4,0.8,6.4c0.6,2,1.4,3.6,2.5,5c1.1,1.4,2.4,2.5,4,3.3c1.5,0.8,3.3,1.2,5.4,1.2c2.3,0,4.2-0.5,5.8-1.4
		c1.6-0.9,2.9-2.1,3.9-3.6c1-1.5,1.8-3.2,2.2-5.1C370.4,87.4,370.6,85.4,370.6,83.5z M388.2,43.5h10V53h-10V43.5z M388.2,60.8h10
		v45.3h-10V60.8z M407.1,43.5h10v62.6h-10V43.5z M447.7,107.3c-3.6,0-6.8-0.6-9.7-1.8c-2.8-1.2-5.2-2.8-7.2-4.9
		c-2-2.1-3.4-4.6-4.5-7.5c-1-2.9-1.5-6.1-1.5-9.6c0-3.4,0.5-6.6,1.5-9.5c1-2.9,2.5-5.4,4.5-7.5c2-2.1,4.4-3.8,7.2-4.9
		c2.8-1.2,6.1-1.8,9.7-1.8c3.6,0,6.8,0.6,9.7,1.8c2.8,1.2,5.2,2.8,7.2,4.9c2,2.1,3.4,4.6,4.5,7.5c1,2.9,1.5,6.1,1.5,9.5
		c0,3.5-0.5,6.7-1.5,9.6c-1,2.9-2.5,5.4-4.5,7.5c-2,2.1-4.4,3.8-7.2,4.9C454.5,106.7,451.3,107.3,447.7,107.3z M447.7,99.4
		c2.2,0,4.1-0.5,5.8-1.4c1.6-0.9,3-2.2,4-3.7c1.1-1.5,1.8-3.2,2.3-5.1c0.5-1.9,0.7-3.8,0.7-5.8c0-1.9-0.2-3.9-0.7-5.8
		c-0.5-1.9-1.3-3.6-2.3-5.1c-1.1-1.5-2.4-2.7-4-3.6c-1.6-0.9-3.6-1.4-5.8-1.4c-2.2,0-4.1,0.5-5.8,1.4c-1.6,0.9-3,2.1-4,3.6
		c-1.1,1.5-1.8,3.2-2.3,5.1c-0.5,1.9-0.7,3.9-0.7,5.8c0,2,0.2,3.9,0.7,5.8c0.5,1.9,1.3,3.6,2.3,5.1c1.1,1.5,2.4,2.7,4,3.7
		C443.5,98.9,445.5,99.4,447.7,99.4z M473.5,60.8h7.5V47.2h10v13.6h9v7.4h-9v24.2c0,1.1,0,2,0.1,2.7c0.1,0.8,0.3,1.4,0.6,1.9
		c0.3,0.5,0.8,0.9,1.4,1.2c0.6,0.3,1.5,0.4,2.6,0.4c0.7,0,1.4,0,2.1,0c0.7,0,1.4-0.1,2.1-0.3v7.7c-1.1,0.1-2.2,0.2-3.2,0.4
		c-1.1,0.1-2.1,0.2-3.2,0.2c-2.6,0-4.7-0.2-6.4-0.7c-1.6-0.5-2.9-1.2-3.8-2.2c-0.9-1-1.5-2.2-1.8-3.6c-0.3-1.5-0.5-3.1-0.6-5V68.2
		h-7.5V60.8z M59.9,87L86,80.3l10.9,33.6L59.9,87z M119.8,43.5l-45.7,0L59.9,0L45.7,43.5L0,43.5l37,26.9l-14.1,43.5l37-26.9
		l22.9-16.6L119.8,43.5L119.8,43.5L119.8,43.5L119.8,43.5z"/>
</g>
</svg>
